<svg width="173" height="40" viewBox="0 0 173 40" fill="none" xmlns="http://www.w3.org/2000/svg">
<path d="M54.6016 10.9375H57.6133L61.0938 22.6094L64.5625 10.9375H67.2227L62.3711 28H59.8047L54.6016 10.9375ZM53.3828 10.9375H56.2539L56.6992 22.1875V28H53.3828V10.9375ZM65.9102 10.9375H68.793V28H65.4883V22.1875L65.9102 10.9375ZM74.6172 26.5469L77.2656 15.3203H80.6875L76.5156 29.8984C76.4219 30.2188 76.293 30.5625 76.1289 30.9297C75.9648 31.3047 75.7461 31.6562 75.4727 31.9844C75.207 32.3203 74.8711 32.5938 74.4648 32.8047C74.0586 33.0156 73.5703 33.1211 73 33.1211C72.7109 33.1211 72.4766 33.1016 72.2969 33.0625C72.125 33.0312 71.9062 32.9766 71.6406 32.8984V30.3438C71.7109 30.3438 71.7773 30.3438 71.8398 30.3438C71.9102 30.3516 71.9766 30.3555 72.0391 30.3555C72.4062 30.3555 72.6992 30.3047 72.918 30.2031C73.1367 30.1094 73.3125 29.9609 73.4453 29.7578C73.5859 29.5547 73.7031 29.3008 73.7969 28.9961L74.6172 26.5469ZM73.9375 15.3203L75.9062 24.4141L76.3516 28.1172L74.1367 28.3281L70.4219 15.3203H73.9375ZM91.2461 10.9375V28H87.8125V10.9375H91.2461ZM96.5898 18.1914V21.0273H90.3789V18.1914H96.5898ZM97.2461 10.9375V13.7852H90.3789V10.9375H97.2461ZM102.531 15.3203V28H99.2383V15.3203H102.531ZM99.0859 12.0391C99.0859 11.5312 99.2461 11.1133 99.5664 10.7852C99.8945 10.4492 100.332 10.2812 100.879 10.2812C101.434 10.2812 101.871 10.4492 102.191 10.7852C102.512 11.1133 102.672 11.5312 102.672 12.0391C102.672 12.5391 102.508 12.957 102.18 13.293C101.859 13.6211 101.43 13.7852 100.891 13.7852C100.336 13.7852 99.8945 13.6211 99.5664 13.293C99.2461 12.957 99.0859 12.5391 99.0859 12.0391ZM108.355 18.0273V28H105.062V15.3203H108.145L108.355 18.0273ZM107.863 21.2266L106.984 21.25C106.969 20.2969 107.059 19.4414 107.254 18.6836C107.457 17.9258 107.742 17.2812 108.109 16.75C108.484 16.2109 108.93 15.8008 109.445 15.5195C109.969 15.2305 110.551 15.0859 111.191 15.0859C111.684 15.0859 112.133 15.1719 112.539 15.3438C112.953 15.5156 113.309 15.7891 113.605 16.1641C113.902 16.5391 114.133 17.0391 114.297 17.6641C114.461 18.2812 114.543 19.0391 114.543 19.9375V28H111.25V19.9141C111.25 19.3672 111.195 18.9453 111.086 18.6484C110.977 18.3438 110.812 18.1328 110.594 18.0156C110.375 17.8906 110.102 17.8281 109.773 17.8281C109.461 17.8281 109.184 17.918 108.941 18.0977C108.699 18.2695 108.496 18.5078 108.332 18.8125C108.176 19.1172 108.055 19.4766 107.969 19.8906C107.891 20.3047 107.855 20.75 107.863 21.2266ZM122.535 25.082V19.2227C122.535 18.8398 122.488 18.5352 122.395 18.3086C122.309 18.082 122.176 17.918 121.996 17.8164C121.824 17.707 121.613 17.6523 121.363 17.6523C121.082 17.6523 120.848 17.7109 120.66 17.8281C120.473 17.9453 120.332 18.1133 120.238 18.332C120.152 18.5508 120.109 18.8125 120.109 19.1172H116.816C116.816 18.5703 116.922 18.0547 117.133 17.5703C117.344 17.0781 117.652 16.6484 118.059 16.2812C118.473 15.9062 118.965 15.6133 119.535 15.4023C120.105 15.1914 120.746 15.0859 121.457 15.0859C122.301 15.0859 123.051 15.2305 123.707 15.5195C124.363 15.8008 124.883 16.25 125.266 16.8672C125.648 17.4844 125.84 18.2852 125.84 19.2695V24.918C125.84 25.6289 125.875 26.207 125.945 26.6523C126.023 27.0977 126.137 27.4805 126.285 27.8008V28H122.98C122.832 27.6484 122.719 27.2109 122.641 26.6875C122.57 26.1562 122.535 25.6211 122.535 25.082ZM122.934 20.2539L122.945 22.2227H121.738C121.426 22.2227 121.152 22.2734 120.918 22.375C120.691 22.4766 120.5 22.6211 120.344 22.8086C120.188 22.9883 120.07 23.1992 119.992 23.4414C119.922 23.6836 119.887 23.9414 119.887 24.2148C119.887 24.5195 119.93 24.7773 120.016 24.9883C120.102 25.1992 120.23 25.3594 120.402 25.4688C120.574 25.5781 120.777 25.6328 121.012 25.6328C121.371 25.6328 121.684 25.5586 121.949 25.4102C122.215 25.2617 122.41 25.082 122.535 24.8711C122.668 24.6602 122.711 24.4648 122.664 24.2852L123.414 25.5625C123.32 25.8516 123.191 26.1523 123.027 26.4648C122.871 26.7773 122.672 27.0664 122.43 27.332C122.188 27.5977 121.887 27.8164 121.527 27.9883C121.176 28.1523 120.758 28.2344 120.273 28.2344C119.594 28.2344 118.973 28.0781 118.41 27.7656C117.848 27.4531 117.402 27.0156 117.074 26.4531C116.754 25.8906 116.594 25.2227 116.594 24.4492C116.594 23.8086 116.695 23.2305 116.898 22.7148C117.109 22.1914 117.422 21.75 117.836 21.3906C118.25 21.0234 118.773 20.7422 119.406 20.5469C120.039 20.3516 120.781 20.2539 121.633 20.2539H122.934ZM131.488 18.0273V28H128.195V15.3203H131.277L131.488 18.0273ZM130.996 21.2266L130.117 21.25C130.102 20.2969 130.191 19.4414 130.387 18.6836C130.59 17.9258 130.875 17.2812 131.242 16.75C131.617 16.2109 132.062 15.8008 132.578 15.5195C133.102 15.2305 133.684 15.0859 134.324 15.0859C134.816 15.0859 135.266 15.1719 135.672 15.3438C136.086 15.5156 136.441 15.7891 136.738 16.1641C137.035 16.5391 137.266 17.0391 137.43 17.6641C137.594 18.2812 137.676 19.0391 137.676 19.9375V28H134.383V19.9141C134.383 19.3672 134.328 18.9453 134.219 18.6484C134.109 18.3438 133.945 18.1328 133.727 18.0156C133.508 17.8906 133.234 17.8281 132.906 17.8281C132.594 17.8281 132.316 17.918 132.074 18.0977C131.832 18.2695 131.629 18.5078 131.465 18.8125C131.309 19.1172 131.188 19.4766 131.102 19.8906C131.023 20.3047 130.988 20.75 130.996 21.2266ZM144.66 25.5039C144.965 25.5039 145.227 25.4414 145.445 25.3164C145.672 25.1914 145.844 24.9883 145.961 24.707C146.078 24.4258 146.141 24.0625 146.148 23.6172H149.23C149.23 24.5703 149.027 25.3945 148.621 26.0898C148.223 26.7773 147.684 27.3086 147.004 27.6836C146.332 28.0508 145.57 28.2344 144.719 28.2344C143.867 28.2344 143.125 28.0977 142.492 27.8242C141.859 27.5508 141.336 27.1523 140.922 26.6289C140.516 26.1055 140.207 25.4688 139.996 24.7188C139.793 23.9609 139.691 23.0938 139.691 22.1172V21.1914C139.691 20.2305 139.793 19.3711 139.996 18.6133C140.207 17.8555 140.516 17.2148 140.922 16.6914C141.336 16.168 141.855 15.7695 142.48 15.4961C143.113 15.2227 143.855 15.0859 144.707 15.0859C145.621 15.0859 146.414 15.2773 147.086 15.6602C147.758 16.0352 148.281 16.5898 148.656 17.3242C149.039 18.0586 149.23 18.9648 149.23 20.043H146.148C146.141 19.5586 146.082 19.1562 145.973 18.8359C145.871 18.5078 145.711 18.2578 145.492 18.0859C145.281 17.9062 145 17.8164 144.648 17.8164C144.281 17.8164 143.984 17.8945 143.758 18.0508C143.539 18.1992 143.371 18.418 143.254 18.707C143.145 18.9883 143.07 19.3398 143.031 19.7617C142.992 20.1836 142.973 20.6602 142.973 21.1914V22.1172C142.973 22.6875 142.988 23.1836 143.02 23.6055C143.059 24.0195 143.133 24.3711 143.242 24.6602C143.359 24.9414 143.527 25.1523 143.746 25.293C143.973 25.4336 144.277 25.5039 144.66 25.5039ZM156.227 28.2344C155.359 28.2344 154.59 28.1016 153.918 27.8359C153.254 27.5703 152.691 27.1875 152.23 26.6875C151.77 26.1797 151.418 25.5664 151.176 24.8477C150.934 24.1289 150.812 23.3086 150.812 22.3867V21.3438C150.812 20.3125 150.93 19.4102 151.164 18.6367C151.398 17.8555 151.73 17.1992 152.16 16.668C152.59 16.1367 153.117 15.7422 153.742 15.4844C154.375 15.2188 155.09 15.0859 155.887 15.0859C156.684 15.0859 157.383 15.2188 157.984 15.4844C158.594 15.7422 159.098 16.1328 159.496 16.6562C159.895 17.1719 160.195 17.8125 160.398 18.5781C160.602 19.3438 160.703 20.2344 160.703 21.25V22.75H152.207V20.4414H157.48V20.1484C157.48 19.6328 157.426 19.2031 157.316 18.8594C157.207 18.5078 157.035 18.2461 156.801 18.0742C156.566 17.9023 156.254 17.8164 155.863 17.8164C155.535 17.8164 155.258 17.8828 155.031 18.0156C154.805 18.1484 154.625 18.3555 154.492 18.6367C154.359 18.918 154.262 19.2852 154.199 19.7383C154.137 20.1836 154.105 20.7188 154.105 21.3438V22.3867C154.105 22.9727 154.156 23.4648 154.258 23.8633C154.359 24.2539 154.508 24.5742 154.703 24.8242C154.906 25.0664 155.152 25.2422 155.441 25.3516C155.73 25.4531 156.066 25.5039 156.449 25.5039C157.027 25.5039 157.547 25.4023 158.008 25.1992C158.477 24.9883 158.875 24.7031 159.203 24.3438L160.516 26.3359C160.289 26.6328 159.977 26.9297 159.578 27.2266C159.18 27.5234 158.703 27.7656 158.148 27.9531C157.594 28.1406 156.953 28.2344 156.227 28.2344ZM168.227 24.5781C168.227 24.3594 168.152 24.1641 168.004 23.9922C167.855 23.8203 167.621 23.6445 167.301 23.4648C166.98 23.2773 166.555 23.0703 166.023 22.8438C165.445 22.6094 164.934 22.3672 164.488 22.1172C164.043 21.8672 163.664 21.5898 163.352 21.2852C163.047 20.9805 162.816 20.6328 162.66 20.2422C162.504 19.8516 162.426 19.4062 162.426 18.9062C162.426 18.3672 162.523 17.8711 162.719 17.418C162.922 16.957 163.211 16.5547 163.586 16.2109C163.961 15.8594 164.418 15.5859 164.957 15.3906C165.504 15.1875 166.117 15.0859 166.797 15.0859C167.75 15.0859 168.566 15.2539 169.246 15.5898C169.934 15.918 170.461 16.3789 170.828 16.9727C171.195 17.5664 171.379 18.2578 171.379 19.0469H168.098C168.098 18.7656 168.055 18.5156 167.969 18.2969C167.883 18.0703 167.742 17.8945 167.547 17.7695C167.359 17.6445 167.105 17.582 166.785 17.582C166.551 17.582 166.34 17.6328 166.152 17.7344C165.973 17.8359 165.828 17.9727 165.719 18.1445C165.617 18.3086 165.566 18.5039 165.566 18.7305C165.566 18.9023 165.602 19.0547 165.672 19.1875C165.75 19.3203 165.871 19.4492 166.035 19.5742C166.199 19.6992 166.418 19.832 166.691 19.9727C166.973 20.1055 167.316 20.2539 167.723 20.418C168.566 20.7305 169.258 21.0664 169.797 21.4258C170.344 21.7852 170.75 22.207 171.016 22.6914C171.281 23.168 171.414 23.7578 171.414 24.4609C171.414 25.0234 171.305 25.5352 171.086 25.9961C170.875 26.457 170.566 26.8555 170.16 27.1914C169.754 27.5273 169.266 27.7852 168.695 27.9648C168.133 28.1445 167.504 28.2344 166.809 28.2344C165.785 28.2344 164.922 28.0312 164.219 27.625C163.516 27.2188 162.984 26.6992 162.625 26.0664C162.266 25.4258 162.086 24.7617 162.086 24.0742H165.203C165.219 24.4961 165.297 24.8281 165.438 25.0703C165.586 25.3047 165.785 25.4688 166.035 25.5625C166.285 25.6562 166.562 25.7031 166.867 25.7031C167.172 25.7031 167.422 25.6641 167.617 25.5859C167.82 25.5 167.973 25.3711 168.074 25.1992C168.176 25.0195 168.227 24.8125 168.227 24.5781Z" fill="white"/>
<path d="M34.1422 5.85781C30.3647 2.08031 25.3422 0 20 0C14.6578 0 9.63531 2.08031 5.85781 5.85781C2.08031 9.63531 0 14.6578 0 20C0 25.3422 2.08039 30.3646 5.85781 34.1422C9.63523 37.9198 14.6578 40 20 40C25.3422 40 30.3647 37.9197 34.1422 34.1422C37.9197 30.3647 40 25.3422 40 20C40 14.6578 37.9196 9.63539 34.1422 5.85781Z" fill="#33CC95"/>
<g clip-path="url(#clip0_95312_175)">
<path d="M20.5714 8V33.1429" stroke="white" stroke-width="2" stroke-linecap="round" stroke-linejoin="round"/>
<path d="M26.2857 12.5714H17.7143C16.6534 12.5714 15.636 12.9929 14.8859 13.743C14.1357 14.4931 13.7143 15.5106 13.7143 16.5714C13.7143 17.6323 14.1357 18.6497 14.8859 19.3999C15.636 20.15 16.6534 20.5714 17.7143 20.5714H23.4286C24.4894 20.5714 25.5069 20.9929 26.257 21.743C27.0072 22.4932 27.4286 23.5106 27.4286 24.5714C27.4286 25.6323 27.0072 26.6497 26.257 27.3999C25.5069 28.15 24.4894 28.5714 23.4286 28.5714H13.7143" stroke="white" stroke-width="2" stroke-linecap="round" stroke-linejoin="round"/>
</g>
<defs>
<clipPath id="clip0_95312_175">
<rect width="27.4286" height="27.4286" fill="white" transform="translate(6.85715 6.85714)"/>
</clipPath>
</defs>
</svg>
